<svg xmlns="http://www.w3.org/2000/svg" viewBox="0 0 48 48" fill="none" data-sparo-icon="files" data-sparo-variant="emphasis">
  <circle cx="24" cy="24" r="22" fill="var(--sparo-icon-background, #d9231b)" />
  <g transform="translate(5.28 5.28) scale(0.78)" stroke="var(--sparo-icon-foreground, #fff)" stroke-width="var(--sparo-icon-stroke-width, 2.5641)" stroke-linecap="round" stroke-linejoin="round">
    <path d="M3 21v-9a5 5 0 0 1 5-5h11a5 5 0 0 1 5 5v1" />
      <path d="M12 14.5h8c2 0 3.2.6 4.5 2L26 18h13.5a4.5 4.5 0 0 1 4.5 4.5v14a4.5 4.5 0 0 1-4.5 4.5h-27A4.5 4.5 0 0 1 8 36.5V19a4.5 4.5 0 0 1 4-4.5Z" />
  </g>
</svg>
