<svg xmlns="http://www.w3.org/2000/svg" viewBox="0 0 48 48" fill="none" data-sparo-icon="layout-reset" data-sparo-variant="emphasis">
  <circle cx="24" cy="24" r="22" fill="var(--sparo-icon-background, #d9231b)" />
  <g transform="translate(5.28 5.28) scale(0.78)" stroke="var(--sparo-icon-foreground, #fff)" stroke-width="var(--sparo-icon-stroke-width, 2.5641)" stroke-linecap="round" stroke-linejoin="round">
    <path d="M12 7h21a4 4 0 0 1 4 4v12" />
      <path d="M8 35V11a4 4 0 0 1 4-4" />
      <path d="M8 35a4 4 0 0 0 4 4h17" />
      <path d="M25 7v32" />
      <path d="M32 29a7 7 0 0 1 12 4" />
      <path d="m44 29v4h-4" />
      <path d="M43 38a7 7 0 0 1-12-4" />
      <path d="m31 38v-4h4" />
  </g>
</svg>
